<?xml version="1.0" encoding="UTF-8"?>
<svg id="Capa_7" data-name="Capa 7" xmlns="http://www.w3.org/2000/svg" xmlns:xlink="http://www.w3.org/1999/xlink" viewBox="0 0 1287.29 1286.9">
  <defs>
    <style>
      .cls-1, .cls-2 {
        fill: none;
      }

      .cls-2 {
        stroke: #f8e8e6;
        stroke-linecap: round;
        stroke-miterlimit: 10;
        stroke-width: 36px;
      }

      .cls-3 {
        fill: #3148eb;
      }

      .cls-4 {
        fill: #f84361;
      }

      .cls-5 {
        clip-path: url(#clippath);
      }

      .cls-6 {
        fill: #f8e8e6;
      }
    </style>
    <clipPath id="clippath">
      <path class="cls-1" d="M667.78,106.94c-288.43,0-522.24,237.04-522.24,529.45,0,120.18,36.78,248.26,103.33,337.12,20.61,26.15,21.87,32.32,65.77,82.56,11.78,36.25-55.1,116.85-35.88,134.97,23.85,22.49,127.99-76.17,211.72-63.92,0,0,0,0,0,0,54.79,19.79,131.03,32.32,192.52,32.32,288.43,0,507.02-230.64,507.02-523.05S956.21,106.94,667.78,106.94Z"/>
    </clipPath>
  </defs>
  <g class="cls-5">
    <g>
      <rect class="cls-6" width="1287.59" height="1287.59"/>
      <path class="cls-3" d="M1009.42,519.85c-63-26.74-197.47-83.17-408.94-.66-19.87-9.2-40.6-22.25-49.18-39.04-4.82-9.44-5.11-19.11-.87-29.55,4.24-10.45,10.76-17.76,17.98-22.86,7.88,18.26,21.9,31.57,37.38,38.52,24.69,11.09,49.78,5.09,61.03-14.58,5.73-10.03,5.61-20.64-.34-29.87-10.42-16.16-38.65-25.95-67.12-23.29-6.79.64-13.23,1.92-19.26,3.8-1.14-10.87.16-23.21,4.75-36.82,1.59-4.71-.94-9.82-5.65-11.4s-9.82.94-11.4,5.65c-6.26,18.56-7.3,35.42-4.71,50.09-13.29,7.88-23.42,19.46-29.32,34-6.23,15.36-5.72,30.34,1.53,44.53,8.47,16.57,25.38,29.75,43.26,39.77-40.87,17.38-84.47,39.9-130.86,68.71-312.24,189.62-289.43,757.27-289.43,757.27l1213.3-30.14,9.98-443.4c-88.4-159.68-220.99-296.55-372.12-360.71ZM601.04,416.45c23.94-2.24,44.38,5.92,50.31,15.12,2.29,3.55,2.24,7-.16,11.19-7.59,13.29-24.57,13.14-38.02,7.09-12.22-5.49-22.88-15.77-28.72-30.01,6.13-2,11.96-2.95,16.6-3.39Z"/>
      <ellipse class="cls-6" cx="486.67" cy="742.39" rx="26.14" ry="49.26" transform="translate(-111.84 86.81) rotate(-9.15)"/>
      <ellipse class="cls-6" cx="571.47" cy="726.73" rx="26.14" ry="49.26" transform="translate(-108.27 100.1) rotate(-9.15)"/>
      <path class="cls-2" d="M516.59,853.48s45.62,53.23,159.68-14.26"/>
    </g>
  </g>
  <path class="cls-4" d="M816.5,1170.52c-18.02,0-41.67-10.79-69.71-47.86-21.72-28.72-36.26-59.98-36.87-61.3-2.08-4.51-.12-9.86,4.39-11.95,4.51-2.08,9.86-.12,11.95,4.39.2.42,14.48,31.07,35.04,58.19,17.5,23.09,43.19,48.45,66.22,38.13,8.34-3.74,13.94-17.08,15.77-37.57.22-2.43.38-4.94.49-7.52-7.12-3.9-14.25-8.55-21.34-13.94-29.96-22.77-57.04-57.06-72.45-91.74-19.27-43.35-15.63-76.75,9.73-89.34,11.88-5.9,24.53-4.67,36.58,3.57,11.08,7.57,32.32,28.97,50.05,87.17,9.67,31.75,15.17,65.21,15.56,93.32,25.71,11.47,45.7,8.92,59.15,3.61,15.21-6,25.53-17.75,30.8-35.03-6.4-2.44-12.73-5.58-18.98-9.42-25.55-15.7-49.13-43.11-66.41-77.18-15.47-30.49-24.08-63.12-23.04-87.26,1.02-23.68,10.85-33.48,18.92-37.53,7.28-3.65,19.31-5.65,35.29,5.57,19.48,13.67,40.26,44.05,55.58,81.27,16.24,39.43,23.45,79.8,19.77,110.75-.04.36-.09.71-.13,1.06,17.99,3.17,36.22-.37,54.5-10.64,19.69-11.05,32.53-26.05,38.4-44.75-11.84-4.75-23.62-11.75-35.18-20.98-26.18-20.9-50.62-53.05-67.04-88.22-15.95-34.14-25.58-75.02-4.82-87.37,8.16-4.85,18.86-3.55,31.83,3.86,20.09,11.48,44.21,36.97,62.95,66.53,22,34.7,34.05,70.64,33.94,101.2-.02,4.36-.27,8.61-.77,12.75,13.82,2.98,27.51,2.12,40.96-2.6,4.69-1.65,9.83.82,11.47,5.51,1.65,4.69-.82,9.83-5.51,11.47-16.55,5.81-33.59,6.82-50.65,3.14-7.23,23.06-23.05,41.82-46.78,55.15-22.1,12.41-44.78,16.59-66.99,12.54-6.86,22.76-20.98,38.81-41.52,46.91-20.36,8.03-43.08,7.46-66.35-1.3-.03.34-.06.68-.09,1.02-2.5,28.06-11.36,45.69-26.33,52.4-5.23,2.34-11.38,3.97-18.37,3.97ZM774.75,924.36c-2.9,0-5.23.88-7.04,1.77-12.11,6.01-18.81,26.49-1.29,65.91,14.24,32.03,39.24,63.7,66.89,84.72,3.48,2.65,6.89,5.05,10.22,7.22-1.38-24.1-6.38-51.58-14.43-77.99-11.6-38.1-27.67-67.09-42.99-77.55-4.5-3.07-8.27-4.08-11.38-4.08ZM874.58,866.41c-1.52,0-2.91.32-4.17.95-7.16,3.59-8.71,15.46-9,22.22-.91,21.2,6.98,50.48,21.11,78.34,15.8,31.15,37.03,56,59.79,69.99,4.32,2.66,8.67,4.91,13.03,6.76,5.93-59.55-33.48-148.84-68.05-173.1-4.9-3.44-9.15-5.16-12.71-5.16ZM969.57,813.14c-.85,0-1.39.14-1.65.3-4.78,2.84-6.28,25.29,11.93,64.28,15.29,32.74,37.87,62.54,61.96,81.77,9.14,7.3,18.27,12.98,27.36,17.03.18-2.3.27-4.64.28-7.03.22-58.97-52.31-131.74-87.82-152.03-6.08-3.47-9.98-4.31-12.05-4.31Z"/>
</svg>