<?xml version="1.0" encoding="UTF-8"?>
<svg id="Capa_5" data-name="Capa 5" xmlns="http://www.w3.org/2000/svg" xmlns:xlink="http://www.w3.org/1999/xlink" viewBox="0 0 1287.98 1287.59">
  <defs>
    <style>
      .cls-1, .cls-2 {
        fill: none;
      }

      .cls-3 {
        fill: #3148eb;
      }

      .cls-4 {
        fill: #f84361;
      }

      .cls-2 {
        stroke: #3148eb;
        stroke-linecap: round;
        stroke-miterlimit: 10;
        stroke-width: 41px;
      }

      .cls-5 {
        clip-path: url(#clippath);
      }

      .cls-6 {
        fill: #f8e8e6;
      }
    </style>
    <clipPath id="clippath">
      <path class="cls-1" d="M637.23,166.09c-267.26,0-483.91,216.65-483.91,483.91,0,109.84,36.6,211.13,98.27,292.35,14.19,25.84,56.22,55.83,63.58,98.81,7.65,44.67-53.69,100.71-35.88,117.27,22.1,20.55,117.91-63.66,195.49-52.46,0,0,.02,0,.03,0,50.77,18.09,105.44,27.94,162.42,27.94,267.26,0,483.91-216.65,483.91-483.91s-216.65-483.91-483.91-483.91Z"/>
    </clipPath>
  </defs>
  <g class="cls-5">
    <g>
      <rect class="cls-3" width="1287.98" height="1287.98"/>
      <g>
        <path class="cls-6" d="M1287.59,881c-123.87-124.82-277.32-237.01-277.32-237.01,0,0-213.86-158.13-524.67,20.09-250.89,143.86-285.32,454.92-289.27,623.51h1091.26v-406.59Z"/>
        <path class="cls-6" d="M636.46,470.27c3.69-.31,7.35,1.6,9.08,5.09.61,1.23,15.05,30.45,25.8,62.55,15.95,47.6,15.12,75.82-2.54,86.26-11.73,6.94-22.88,7.44-33.14,4.12-3.16,9.84-8.9,18.27-17.95,24.31-14.37,9.59-29.87,11.61-45.28,6.01-3.75,8.17-9.4,14.94-17.34,19.53-8.12,4.7-20.91,8.05-38,.29-1.24,14.73-5.31,17.49-7.28,18.83-4.22,2.86-9.98,1.79-12.86-2.4-2.44-3.55-2.03-8.19.72-11.26.74-2.37,1.27-8.3,1.16-16.84-28.78-23.68-53.97-69.13-51.28-95.32,1.07-10.42,6.41-17.99,15.02-21.31,7.63-2.94,22.28-4.38,34.68,19,12.06,22.74,16.93,57.98,18.46,72.08.66,6.04,1.11,11.42,1.38,16.2.29.19.58.38.87.57,11.12,7.1,20.48,8.55,27.81,4.31,4.92-2.84,8.19-7.35,10.33-12.52-31.79-23.03-52.07-72.85-51.85-99.27.12-14.68,6.22-20.89,11.31-23.52,6.58-3.39,23.96-7.55,43.08,26.95,13.57,24.49,22.85,59.34,18.83,86.9,9.14,3.63,19.31,3.61,29.91-3.46,6.43-4.29,9.95-10.77,11.65-17.97-16.89-12.57-30.13-33.05-37.82-44.92-1.79-2.77-3.34-5.16-4.51-6.82-2.16-3.05-4.07-6.28-5.68-9.58-10.01-20.5-18.52-47.21-2.27-58.03,6.7-4.46,21.03-7.36,41.77,23.28,15.63,23.09,29.14,57.56,28.17,86.42,9.36,3.92,16.02,1.39,20.65-1.35,6.49-3.84,8.45-22.81-5.51-64.53-10.35-30.92-24.75-60.09-24.9-60.38-2.25-4.55-.36-10.05,4.22-12.3,1.07-.52,2.19-.82,3.3-.92ZM619.53,595.16c-.55-3.97-1.3-7.67-2.05-10.83-8.67-36.35-30.74-65.28-38.89-68.36-1.2,2.82-.93,13.51,9.12,34.09,1.18,2.42,2.59,4.79,4.18,7.04,1.39,1.97,3.04,4.51,4.94,7.45,5.53,8.55,13.4,20.69,22.71,30.62ZM559.86,628.86c.05-2.79-.04-5.4-.18-7.67-1.2-19.02-7.81-41.4-17.23-58.41-8.74-15.77-16.35-20.26-18.25-19.56-1.02,1.2-3.5,9.39,2.25,28.59,5.17,17.28,14.82,35.52,25.8,48.79,2.32,2.81,4.87,5.61,7.61,8.24ZM496.85,639.07c-.36-2.93-.77-5.96-1.25-9.08-4.4-28.85-12.16-51.98-20.24-60.36-3.32-3.45-4.99-2.81-6.09-2.38-.83.32-2.78,1.07-3.29,6.03-1.01,9.82,4.55,26.35,14.52,43.13,4.87,8.2,10.47,15.92,16.35,22.66ZM499.38,682.1s0,0,0,0c0,0,0,0,0,0Z"/>
        <ellipse class="cls-3" cx="593.01" cy="764.23" rx="19.6" ry="45.98" transform="translate(-167.8 166.83) rotate(-14.05)"/>
        <ellipse class="cls-3" cx="682.71" cy="737.91" rx="19.6" ry="45.98" transform="translate(-57.79 58.01) rotate(-4.67)"/>
        <path class="cls-2" d="M605.6,888.39s55.91,41.5,146.85-56.47"/>
      </g>
    </g>
  </g>
  <path class="cls-4" d="M1138.34,479.49c-2.67,0-5.33-1.01-7.38-3.03-4.13-4.07-4.17-10.72-.09-14.85,21.58-21.86,25.55-41.44,12.13-59.87-9.69-13.31-19.08-12.27-33.3-10.69-15.54,1.72-36.82,4.09-55.39-19.79-21.95-28.22-12.37-56.44-4.67-79.12,8.03-23.64,11.88-37.71-2.16-51.94-14.93-15.13-27.17-11.68-47.51-4.28-16.38,5.96-36.76,13.37-57.87.34-25.28-15.6-26.89-41.77-28.18-62.79-1.38-22.43-2.96-35.4-19.3-41.3-17.31-6.25-28.47,1.38-45.24,14.33-15.58,12.03-33.23,25.66-59.04,19.77-30.4-6.94-37.67-27.69-43.52-44.37-5.31-15.15-8.82-25.17-26.15-28.78-16.4-3.42-37.79,9.39-50.87,30.46-3.06,4.93-9.53,6.44-14.46,3.38-4.93-3.06-6.44-9.53-3.38-14.46,18.13-29.21,47.47-45.26,73-39.94,28.94,6.03,36,26.19,41.68,42.39,5.39,15.38,9.28,26.48,28.37,30.84,16.15,3.68,27.91-5.4,41.53-15.92,16.12-12.45,36.18-27.94,65.2-17.46,30.12,10.87,31.79,37.98,33.13,59.76,1.2,19.49,2.23,36.32,18.25,46.21,11.86,7.32,22.8,3.93,39.66-2.21,19.83-7.21,44.51-16.19,69.64,9.27,23.83,24.15,14.95,50.34,7.1,73.45-7.32,21.56-13.64,40.18,1.37,59.48,11.36,14.6,21.9,13.43,36.5,11.81,15.91-1.77,35.72-3.97,52.59,19.2,19.64,26.96,14.61,57.85-14.17,86.99-2.05,2.08-4.76,3.12-7.47,3.12Z"/>
</svg>